<svg xmlns="http://www.w3.org/2000/svg" viewBox="0 0 128 128">
    <path fill="#ea4335" d="M1.06 64.2c0-22.22 2.76-37.79 12.59-41C17.44 22 40.78 21.4 64 21.4s46.59.61 50.38 1.84C124.24 26.41 127 42 127 64.2s-2.76 37.78-12.59 41c-3.79 1.18-27.14 1.8-50.41 1.8s-46.59-.62-50.38-1.85C3.82 102 1.06 86.42 1.06 64.2z"/>
    <path fill="#ffffff" d="M36.5 89h10V59h-10zm55-27.5a5 5 0 00-5-5H70.73l2.37-11.43.08-.8a3.8 3.8 0 00-1.1-2.65L69.43 39 53 55.48A4.84 4.84 0 0051.5 59v25a5 5 0 005 5H79a5 5 0 004.6-3l7.55-17.62a4.88 4.88 0 00.35-1.83v-4.82z"/>
</svg>